<svg width="51" height="48" viewBox="0 0 51 48" fill="none" xmlns="http://www.w3.org/2000/svg">
<g clip-path="url(#clip0_15_5832)">
<path d="M13.0857 0C12.0923 0 11.2871 0.767511 11.2871 1.71432V5.14285H14.8841V1.71432C14.8841 0.767511 14.0789 0 13.0857 0Z" fill="#F5F5FC"/>
<path d="M38.2649 0C37.2715 0 36.4663 0.767511 36.4663 1.71432V5.14285H40.0633V1.71432C40.0634 0.767511 39.2582 0 38.2649 0Z" fill="#F5F5FC"/>
<path d="M45.4589 5.14258H40.0634V11.9997C40.0634 12.9466 39.2582 13.7141 38.2648 13.7141C37.2715 13.7141 36.4663 12.9466 36.4663 11.9997V5.14258H14.8842V11.9997C14.8842 12.9466 14.0789 13.7141 13.0856 13.7141C12.0923 13.7141 11.2871 12.9466 11.2871 11.9997V5.14258H5.89163C2.91175 5.14258 0.496094 7.44511 0.496094 10.2854V42.8569C0.496094 45.6972 2.91175 47.9997 5.89163 47.9997H45.4589C48.4388 47.9997 50.8545 45.6972 50.8545 42.8569V10.2854C50.8545 7.44511 48.4388 5.14258 45.4589 5.14258ZM47.2574 42.8569C47.2574 43.8037 46.4521 44.5712 45.4588 44.5712H5.89163C4.8983 44.5712 4.09308 43.8037 4.09308 42.8569V20.5711H47.2574V42.8569Z" fill="#F5F5FC"/>
<path d="M14.8843 24H11.2873C10.294 24 9.48877 24.7675 9.48877 25.7143C9.48877 26.6611 10.294 27.4286 11.2873 27.4286H14.8843C15.8776 27.4286 16.6828 26.6611 16.6828 25.7143C16.6828 24.7675 15.8776 24 14.8843 24Z" fill="#F5F5FC"/>
<path d="M27.4737 24H23.8767C22.8833 24 22.0781 24.7675 22.0781 25.7143C22.0781 26.6611 22.8833 27.4286 23.8767 27.4286H27.4737C28.467 27.4286 29.2722 26.6611 29.2722 25.7143C29.2722 24.7675 28.467 24 27.4737 24Z" fill="#F5F5FC"/>
<path d="M40.0635 24H36.4665C35.4732 24 34.668 24.7675 34.668 25.7143C34.668 26.6611 35.4732 27.4286 36.4665 27.4286H40.0635C41.0568 27.4286 41.862 26.6611 41.862 25.7143C41.862 24.7675 41.0567 24 40.0635 24Z" fill="#F5F5FC"/>
<path d="M14.8843 30.8574H11.2873C10.294 30.8574 9.48877 31.6249 9.48877 32.5717C9.48877 33.5186 10.294 34.2861 11.2873 34.2861H14.8843C15.8776 34.2861 16.6828 33.5186 16.6828 32.5717C16.6828 31.6249 15.8776 30.8574 14.8843 30.8574Z" fill="#F5F5FC"/>
<path d="M27.4737 30.8574H23.8767C22.8833 30.8574 22.0781 31.6249 22.0781 32.5717C22.0781 33.5186 22.8833 34.2861 23.8767 34.2861H27.4737C28.467 34.2861 29.2722 33.5186 29.2722 32.5717C29.2722 31.6249 28.467 30.8574 27.4737 30.8574Z" fill="#F5F5FC"/>
<path d="M40.0635 30.8574H36.4665C35.4732 30.8574 34.668 31.6249 34.668 32.5717C34.668 33.5186 35.4732 34.2861 36.4665 34.2861H40.0635C41.0568 34.2861 41.862 33.5186 41.862 32.5717C41.8619 31.6249 41.0567 30.8574 40.0635 30.8574Z" fill="#F5F5FC"/>
<path d="M14.8843 37.7139H11.2873C10.294 37.7139 9.48877 38.4814 9.48877 39.4282C9.48877 40.375 10.294 41.1424 11.2873 41.1424H14.8843C15.8776 41.1424 16.6828 40.3749 16.6828 39.4281C16.6828 38.4813 15.8776 37.7139 14.8843 37.7139Z" fill="#F5F5FC"/>
<path d="M27.4737 37.7139H23.8767C22.8833 37.7139 22.0781 38.4814 22.0781 39.4282C22.0781 40.375 22.8833 41.1425 23.8767 41.1425H27.4737C28.467 41.1425 29.2722 40.375 29.2722 39.4282C29.2722 38.4814 28.467 37.7139 27.4737 37.7139Z" fill="#F5F5FC"/>
<path d="M40.0635 37.7139H36.4665C35.4732 37.7139 34.668 38.4814 34.668 39.4282C34.668 40.375 35.4732 41.1425 36.4665 41.1425H40.0635C41.0568 41.1425 41.862 40.375 41.862 39.4282C41.862 38.4814 41.0567 37.7139 40.0635 37.7139Z" fill="#F5F5FC"/>
</g>
<defs>
<clipPath id="clip0_15_5832">
<rect width="50.3584" height="48" fill="white" transform="translate(0.496094)"/>
</clipPath>
</defs>
</svg>
