<svg width="59" height="44" viewBox="0 0 59 44" fill="none" xmlns="http://www.w3.org/2000/svg">
<g clip-path="url(#clip0_15_5875)">
<path d="M9.40437 19.25C12.587 19.25 15.1746 16.7836 15.1746 13.75C15.1746 10.7164 12.587 8.25 9.40437 8.25C6.22172 8.25 3.63414 10.7164 3.63414 13.75C3.63414 16.7836 6.22172 19.25 9.40437 19.25ZM49.796 19.25C52.9786 19.25 55.5662 16.7836 55.5662 13.75C55.5662 10.7164 52.9786 8.25 49.796 8.25C46.6133 8.25 44.0257 10.7164 44.0257 13.75C44.0257 16.7836 46.6133 19.25 49.796 19.25ZM52.6811 22H46.9109C45.324 22 43.8905 22.6102 42.8446 23.5984C46.4781 25.4977 49.0567 28.9266 49.6156 33H55.5662C57.162 33 58.4513 31.7711 58.4513 30.25V27.5C58.4513 24.4664 55.8637 22 52.6811 22ZM29.6002 22C35.1811 22 39.6981 17.6945 39.6981 12.375C39.6981 7.05547 35.1811 2.75 29.6002 2.75C24.0193 2.75 19.5023 7.05547 19.5023 12.375C19.5023 17.6945 24.0193 22 29.6002 22ZM36.5244 24.75H35.7761C33.9008 25.6094 31.8181 26.125 29.6002 26.125C27.3822 26.125 25.3086 25.6094 23.4242 24.75H22.6759C16.9417 24.75 12.2895 29.1844 12.2895 34.65V37.125C12.2895 39.4023 14.2279 41.25 16.6172 41.25H42.5832C44.9724 41.25 46.9109 39.4023 46.9109 37.125V34.65C46.9109 29.1844 42.2586 24.75 36.5244 24.75ZM16.3557 23.5984C15.3098 22.6102 13.8763 22 12.2895 22H6.51925C3.33661 22 0.749023 24.4664 0.749023 27.5V30.25C0.749023 31.7711 2.03831 33 3.63414 33H9.57567C10.1437 28.9266 12.7222 25.4977 16.3557 23.5984Z" fill="white"/>
</g>
<defs>
<clipPath id="clip0_15_5875">
<rect width="57.7023" height="44" fill="white" transform="translate(0.749023)"/>
</clipPath>
</defs>
</svg>
