<svg width="35" height="46" viewBox="0 0 35 46" fill="none" xmlns="http://www.w3.org/2000/svg">
<g clip-path="url(#clip0_15_5883)">
<path d="M26.1535 23H8.84284V28.75H26.1535V23ZM34.1777 9.43359L25.3511 0.628906C24.9454 0.224609 24.3954 0 23.8184 0H23.2684V11.5H34.8089V10.952C34.8089 10.3859 34.5835 9.83789 34.1777 9.43359ZM20.3833 12.2188V0H2.35134C1.15221 0 0.1875 0.961328 0.1875 2.15625V43.8438C0.1875 45.0387 1.15221 46 2.35134 46H32.645C33.8442 46 34.8089 45.0387 34.8089 43.8438V14.375H22.5471C21.357 14.375 20.3833 13.4047 20.3833 12.2188ZM5.95773 6.46875C5.95773 6.07164 6.2805 5.75 6.67901 5.75H13.8918C14.2903 5.75 14.6131 6.07164 14.6131 6.46875V7.90625C14.6131 8.30336 14.2903 8.625 13.8918 8.625H6.67901C6.2805 8.625 5.95773 8.30336 5.95773 7.90625V6.46875ZM5.95773 12.2188C5.95773 11.8216 6.2805 11.5 6.67901 11.5H13.8918C14.2903 11.5 14.6131 11.8216 14.6131 12.2188V13.6562C14.6131 14.0534 14.2903 14.375 13.8918 14.375H6.67901C6.2805 14.375 5.95773 14.0534 5.95773 13.6562V12.2188ZM29.0386 39.5312C29.0386 39.9284 28.7159 40.25 28.3174 40.25H21.1046C20.7061 40.25 20.3833 39.9284 20.3833 39.5312V38.0938C20.3833 37.6966 20.7061 37.375 21.1046 37.375H28.3174C28.7159 37.375 29.0386 37.6966 29.0386 38.0938V39.5312ZM29.0386 21.5625V30.1875C29.0386 30.9817 28.3931 31.625 27.5961 31.625H7.40028C6.60327 31.625 5.95773 30.9817 5.95773 30.1875V21.5625C5.95773 20.7683 6.60327 20.125 7.40028 20.125H27.5961C28.3931 20.125 29.0386 20.7683 29.0386 21.5625Z" fill="white"/>
</g>
<defs>
<clipPath id="clip0_15_5883">
<rect width="34.6214" height="46" fill="white" transform="translate(0.1875)"/>
</clipPath>
</defs>
</svg>
