<svg width="152" height="83" viewBox="0 0 152 83" fill="none" xmlns="http://www.w3.org/2000/svg">
<path d="M37.9645 4.94975C39.9171 2.99713 43.0829 2.99713 45.0355 4.94975L78.0502 37.9645C80.0029 39.9171 80.0029 43.0829 78.0503 45.0355L45.0355 78.0502C43.0829 80.0029 39.9171 80.0029 37.9645 78.0503L4.94975 45.0355C2.99713 43.0829 2.99713 39.9171 4.94975 37.9645L37.9645 4.94975Z" stroke="white" stroke-width="2"/>
<path d="M23.056 40.736C23.056 38.5173 23.536 36.544 24.496 34.816C25.456 33.0667 26.7893 31.712 28.496 30.752C30.224 29.7707 32.176 29.28 34.352 29.28C37.0187 29.28 39.3013 29.984 41.2 31.392C43.0987 32.8 44.368 34.72 45.008 37.152H38.992C38.544 36.2133 37.904 35.4987 37.072 35.008C36.2613 34.5173 35.3333 34.272 34.288 34.272C32.6027 34.272 31.2373 34.8587 30.192 36.032C29.1467 37.2053 28.624 38.7733 28.624 40.736C28.624 42.6987 29.1467 44.2667 30.192 45.44C31.2373 46.6133 32.6027 47.2 34.288 47.2C35.3333 47.2 36.2613 46.9547 37.072 46.464C37.904 45.9733 38.544 45.2587 38.992 44.32H45.008C44.368 46.752 43.0987 48.672 41.2 50.08C39.3013 51.4667 37.0187 52.16 34.352 52.16C32.176 52.16 30.224 51.68 28.496 50.72C26.7893 49.7387 25.456 48.384 24.496 46.656C23.536 44.928 23.056 42.9547 23.056 40.736ZM57.767 52.224C56.1243 52.224 54.6523 51.9573 53.351 51.424C52.0497 50.8907 51.0043 50.1013 50.215 49.056C49.447 48.0107 49.0417 46.752 48.999 45.28H54.823C54.9083 46.112 55.1963 46.752 55.687 47.2C56.1777 47.6267 56.8177 47.84 57.607 47.84C58.4177 47.84 59.0577 47.6587 59.527 47.296C59.9963 46.912 60.231 46.3893 60.231 45.728C60.231 45.1733 60.039 44.7147 59.655 44.352C59.2923 43.9893 58.8337 43.6907 58.279 43.456C57.7457 43.2213 56.9777 42.9547 55.975 42.656C54.5243 42.208 53.3403 41.76 52.423 41.312C51.5057 40.864 50.7163 40.2027 50.055 39.328C49.3937 38.4533 49.063 37.312 49.063 35.904C49.063 33.8133 49.8203 32.1813 51.335 31.008C52.8497 29.8133 54.823 29.216 57.255 29.216C59.7297 29.216 61.7243 29.8133 63.239 31.008C64.7537 32.1813 65.5643 33.824 65.671 35.936H59.751C59.7083 35.2107 59.4417 34.6453 58.951 34.24C58.4603 33.8133 57.831 33.6 57.063 33.6C56.4017 33.6 55.8683 33.7813 55.463 34.144C55.0577 34.4853 54.855 34.9867 54.855 35.648C54.855 36.3733 55.1963 36.9387 55.879 37.344C56.5617 37.7493 57.6283 38.1867 59.079 38.656C60.5297 39.1467 61.703 39.616 62.599 40.064C63.5163 40.512 64.3057 41.1627 64.967 42.016C65.6283 42.8693 65.959 43.968 65.959 45.312C65.959 46.592 65.6283 47.7547 64.967 48.8C64.327 49.8453 63.3883 50.6773 62.151 51.296C60.9137 51.9147 59.4523 52.224 57.767 52.224ZM82.0625 52L77.3905 43.52H76.0785V52H70.6065V29.536H79.7905C81.5612 29.536 83.0652 29.8453 84.3025 30.464C85.5612 31.0827 86.4998 31.936 87.1185 33.024C87.7372 34.0907 88.0465 35.2853 88.0465 36.608C88.0465 38.1013 87.6198 39.4347 86.7665 40.608C85.9345 41.7813 84.6972 42.6133 83.0545 43.104L88.2385 52H82.0625ZM76.0785 39.648H79.4705C80.4732 39.648 81.2198 39.4027 81.7105 38.912C82.2225 38.4213 82.4785 37.728 82.4785 36.832C82.4785 35.9787 82.2225 35.3067 81.7105 34.816C81.2198 34.3253 80.4732 34.08 79.4705 34.08H76.0785V39.648ZM106.295 47.776H113.463V52H100.823V29.536H106.295V47.776ZM127.305 47.36V52H124.521C122.537 52 120.99 51.52 119.881 50.56C118.771 49.5787 118.217 47.9893 118.217 45.792V38.688H116.041V34.144H118.217V29.792H123.689V34.144H127.273V38.688H123.689V45.856C123.689 46.3893 123.817 46.7733 124.073 47.008C124.329 47.2427 124.755 47.36 125.353 47.36H127.305ZM130.545 43.04C130.545 41.2053 130.886 39.5947 131.569 38.208C132.273 36.8213 133.222 35.7547 134.417 35.008C135.611 34.2613 136.945 33.888 138.417 33.888C139.59 33.888 140.657 34.1333 141.617 34.624C142.598 35.1147 143.366 35.776 143.921 36.608V28.32H149.393V52H143.921V49.44C143.409 50.2933 142.673 50.976 141.713 51.488C140.774 52 139.675 52.256 138.417 52.256C136.945 52.256 135.611 51.8827 134.417 51.136C133.222 50.368 132.273 49.2907 131.569 47.904C130.886 46.496 130.545 44.8747 130.545 43.04ZM143.921 43.072C143.921 41.7067 143.537 40.6293 142.769 39.84C142.022 39.0507 141.105 38.656 140.017 38.656C138.929 38.656 138.001 39.0507 137.233 39.84C136.486 40.608 136.113 41.6747 136.113 43.04C136.113 44.4053 136.486 45.4933 137.233 46.304C138.001 47.0933 138.929 47.488 140.017 47.488C141.105 47.488 142.022 47.0933 142.769 46.304C143.537 45.5147 143.921 44.4373 143.921 43.072Z" fill="white"/>
</svg>
